<svg width="90" height="20" viewBox="0 0 90 20" fill="none" xmlns="http://www.w3.org/2000/svg">
<path d="M16.4379 18.2105V16.2664H18.541V15.2423C17.6814 13.8555 15.5573 11.266 14.2928 10.2926C11.99 13.9782 9.235 20 4.27181 20C2.25026 20 0.378548 18.7706 0 16.6664L1.87171 16.3091C2.09779 17.4371 3.08359 18.0505 4.17192 18.0505C7.78653 18.0505 9.78179 13.9489 11.4248 11.2553C11.8796 10.538 12.337 9.82058 12.7655 9.07652C11.4248 8.15379 9.42953 7.35639 7.81019 7.35639C6.19084 7.35639 4.39274 8.17779 4.39274 10.0499C4.39178 10.4799 4.53329 10.8977 4.79455 11.2363C5.05581 11.5748 5.42166 11.8145 5.83333 11.9167L5.30757 13.7835C3.58832 13.2208 2.50262 11.9621 2.50262 10.0899C2.50262 7.01237 5.0552 5.42292 7.86277 5.42292C9.93427 5.42292 12.1083 6.29498 13.8275 7.44973C15.5704 4.83354 18.5305 0.85991 21.7402 0.267866C22.7811 0.0778146 23.8373 -0.0114821 24.8948 0.00117959C25.6835 0.00117959 26.4879 0.0251845 27.2607 0.0251845V1.97466H24.8948V16.2664H27.4737V18.2159L16.4379 18.2105ZM18.541 4.56685C17.3684 5.83324 16.3026 7.19724 15.3549 8.64449C16.5414 9.62588 17.6107 10.7447 18.541 11.9781V4.56685Z" fill="#073854"/>
<path d="M47.6077 2.05465V18.2105H44.6503L36.3091 6.82567V16.2664H38.2807V18.2158H28.3964V16.2664H29.9368V2.10531H28.3964V0.155837H33.8065L41.7428 10.978V2.05465H39.9473V0.131836H49.4111V2.05465H47.6077Z" fill="#073854"/>
<path d="M69.5241 2.05465V18.2105H66.5746L58.2255 6.82567V16.2664H60.1971V18.2158H50.3128V16.2664H51.8533V2.10531H50.3128V0.155837H55.7229L63.6593 10.978V2.05465H61.8638V0.131836H71.3275V2.05465H69.5241Z" fill="#073854"/>
<path d="M81.1014 18.2109C79.3414 18.2109 77.621 17.6815 76.1576 16.6895C74.6943 15.6976 73.5538 14.2877 72.8802 12.6382C72.2067 10.9887 72.0305 9.17357 72.3739 7.42244C72.7172 5.67131 73.5647 4.0628 74.8092 2.8003C76.0537 1.53781 77.6392 0.678034 79.3654 0.329712C81.0915 -0.0186096 82.8807 0.16016 84.5067 0.843418C86.1327 1.52668 87.5225 2.68373 88.5002 4.16827C89.478 5.65281 89.9999 7.39815 89.9999 9.18359C90.0055 10.3707 89.7791 11.5471 89.3339 12.6449C88.8887 13.7427 88.2334 14.7401 87.406 15.5795C86.5786 16.4189 85.5954 17.0836 84.5133 17.5353C83.4312 17.9869 82.2715 18.2166 81.1014 18.2109ZM81.1014 2.10573C80.5477 2.10944 79.9964 2.17835 79.4584 2.31108V16.0561C79.9964 16.1888 80.5477 16.2577 81.1014 16.2615C82.9518 16.2615 84.7264 15.5157 86.0348 14.1884C87.3432 12.861 88.0782 11.0608 88.0782 9.18359C88.0782 7.30643 87.3432 5.50615 86.0348 4.17879C84.7264 2.85143 82.9518 2.10573 81.1014 2.10573Z" fill="#073854"/>
</svg>
